<svg xmlns="http://www.w3.org/2000/svg" viewBox="0 0 200 80">
  <path d="M100 12c-2.8 0-6.5 2.3-8.5 5.2-1.8 2.5-3.2 6.4-2.6 10.2 3 .2 6.1-1.8 8-4.6 1.9-2.7 3.3-6.5 3.1-10.8m12.5 55.8c2.5-3.3 3.3-6.5 3.5-7.3-3.8-1.5-7-5.2-7.8-9.3-.8-4.2.4-8.2 2.8-11.3-1.8-2.2-5.1-4.2-9-4.4-3.6-.1-6.5 1.5-8.5 1.5-2.1 0-5.2-1.5-8.3-1.4-4.3.1-8.2 2.5-10.4 6.3-4.5 7.7-1.2 19.2 3.2 25.5 2.1 3.1 4.7 6.5 8 6.4 3.2-.1 4.4-2.1 8.3-2.1 3.9 0 4.9 2.1 8.3 2 3.5-.1 5.7-3.1 7.8-6.2 1.5-2.1 2.5-4.1 3.1-5.2-.1 0-6-2.3-6.1-9.2-.1-5.7 4.7-8.5 4.9-8.6-2.7-3.9-6.8-4.4-8.3-4.5 3.4-1.8 7.2-.2 8.5 1.3 0 0 0 .1 0 0" fill="#555555" transform="translate(60, 5) scale(0.8)"/>
  <text x="100" y="75" font-family="SF Pro Display, Arial, sans-serif" font-size="14" fill="#555555" text-anchor="middle">Apple</text>
</svg>